<svg width="96" height="96" viewBox="0 0 480 480" fill="none" xmlns="http://www.w3.org/2000/svg">
<rect width="480" height="480" fill="#1E1E1E"/>
<rect width="480" height="480" fill="black"/>
<path d="M330.184 112.164C324.389 113.922 321.492 115.842 321.492 117.926C321.492 119.944 323.185 121.344 326.57 122.125C333.146 123.688 342.195 124.632 353.719 124.957C365.242 125.217 373.901 126.096 379.695 127.594C385.555 129.026 390.21 130.849 393.66 133.062C399.91 137.164 403.035 142.6 403.035 149.371C403.035 157.835 398.836 164.703 390.438 169.977C381.128 175.771 368.009 178.668 351.082 178.668C333.569 178.668 319.116 176.064 307.723 170.855C303.621 168.837 301.57 166.559 301.57 164.02C301.57 162.913 301.961 162.034 302.742 161.383C303.589 160.732 304.467 160.406 305.379 160.406C306.486 160.406 307.755 160.829 309.188 161.676C312.508 163.564 315.568 165.126 318.367 166.363C321.232 167.665 325.691 168.902 331.746 170.074C337.801 171.246 343.628 171.832 349.227 171.832C354.891 171.832 359.48 171.572 362.996 171.051C366.577 170.595 369.539 170.042 371.883 169.391C376.505 168.023 378.816 166.493 378.816 164.801C378.816 163.238 378.361 162.099 377.449 161.383C376.538 160.667 375.333 160.016 373.836 159.43C372.404 158.909 370.385 158.421 367.781 157.965C362.443 157.053 355.184 156.37 346.004 155.914C336.824 155.458 329.565 154.547 324.227 153.18C318.888 151.878 314.526 150.185 311.141 148.102C304.565 144.13 301.277 138.759 301.277 131.988C301.277 122.223 307.885 114.312 321.102 108.258C315.047 104.938 310.229 100.576 306.648 95.1719C303.068 89.7031 301.277 83.8112 301.277 77.4961C301.277 71.1159 302.449 65.6146 304.793 60.9922C307.202 56.3047 310.555 52.2682 314.852 48.8828C323.901 41.5911 335.587 37.9453 349.91 37.9453C356.29 37.9453 362.703 38.9219 369.148 40.875C378.393 31.9557 386.954 27.4961 394.832 27.4961C398.152 27.4961 400.594 28.0495 402.156 29.1562C403.784 30.263 404.598 31.6628 404.598 33.3555C404.598 35.0482 404.044 36.2852 402.938 37.0664C401.831 37.7826 400.789 38.1406 399.812 38.1406C398.055 38.1406 396.557 37.9453 395.32 37.5547C393.497 36.9036 391.642 36.5781 389.754 36.5781C386.238 36.5781 381.811 39.0195 376.473 43.9023C387.085 49.1107 394.018 56.5977 397.273 66.3633C398.315 69.6185 398.836 73.6224 398.836 78.375C398.836 83.0625 397.469 87.75 394.734 92.4375C392 97.125 388.354 101.161 383.797 104.547C374.292 111.578 363.126 115.094 350.301 115.094C343.53 115.224 336.824 114.247 330.184 112.164ZM350.691 107.965C361.238 107.835 370.32 105.263 377.938 100.25C386.727 94.5208 391.121 86.7734 391.121 77.0078C391.121 67.2422 386.792 59.3646 378.133 53.375C370.19 47.9062 361.043 45.0742 350.691 44.8789V107.965Z" fill="white"/>
<g filter="url(#filter0_d_0_1)">
<path d="M223.105 242.524L223.447 230.732V203.73C207.383 230.505 183.685 247.537 152.354 254.829C142.441 257.108 130.877 258.247 117.661 258.247C104.559 258.247 90.944 255.513 76.8164 250.044C62.8027 244.575 50.498 236.657 39.9023 226.289C16.6602 203.73 5.03906 174.051 5.03906 137.251C5.03906 102.046 17.3438 72.2526 41.9531 47.8711C67.5879 22.6921 99.7738 10.1025 138.511 10.1025C158.107 10.1025 175.824 13.7484 191.66 21.04C201.344 25.3695 208.18 29.4141 212.168 33.1738C216.156 36.8197 218.149 39.7819 218.149 42.0605C218.149 44.2253 217.466 46.1051 216.099 47.7002C214.731 49.2952 212.795 50.0928 210.288 50.0928C207.896 50.0928 205.218 48.7826 202.256 46.1621C193.483 38.4147 185.736 33.3447 179.014 30.9521C172.406 28.5596 167.108 26.8506 163.12 25.8252C159.132 24.7998 155.544 24.0592 152.354 23.6035C147.454 22.9199 141.644 22.5781 134.922 22.5781C128.2 22.5781 121.991 23.1478 116.294 24.2871V245.43C117.547 245.544 118.8 245.601 120.054 245.601H123.472C157.31 245.601 184.71 232.783 205.674 207.148C212.852 198.376 218.776 188.008 223.447 176.045V159.639C223.447 159.639 223.162 154.512 222.593 144.258C222.593 138.219 224.985 135.2 229.771 135.2C232.277 135.2 234.214 136.055 235.581 137.764C236.948 139.359 237.632 141.353 237.632 143.745L236.606 157.93V221.504L237.632 247.993C237.632 250.728 236.834 252.892 235.239 254.487C233.758 256.082 231.992 256.88 229.941 256.88C224.928 256.88 222.422 254.259 222.422 249.019C222.422 247.651 222.65 245.487 223.105 242.524Z" fill="white"/>
<path d="M223.105 242.524L223.6 242.6L223.604 242.57L223.605 242.539L223.105 242.524ZM223.447 230.732L223.947 230.747L223.947 230.74V230.732H223.447ZM223.447 203.73H223.947V201.925L223.019 203.473L223.447 203.73ZM152.354 254.829L152.466 255.316L152.467 255.316L152.354 254.829ZM76.8164 250.044L76.6346 250.51L76.6359 250.51L76.8164 250.044ZM39.9023 226.289L40.252 225.932L40.2506 225.93L39.9023 226.289ZM41.9531 47.8711L41.6028 47.5144L41.6012 47.5159L41.9531 47.8711ZM191.66 21.04L191.451 21.4942L191.456 21.4965L191.66 21.04ZM212.168 33.1738L211.825 33.5377L211.831 33.5428L212.168 33.1738ZM202.256 46.1621L202.587 45.7876L202.587 45.7873L202.256 46.1621ZM179.014 30.9521L178.843 31.4223L178.846 31.4232L179.014 30.9521ZM163.12 25.8252L163.245 25.3409L163.12 25.8252ZM152.354 23.6035L152.424 23.1085L152.423 23.1083L152.354 23.6035ZM116.294 24.2871L116.196 23.7968L115.794 23.8772V24.2871H116.294ZM116.294 245.43H115.794V245.886L116.249 245.928L116.294 245.43ZM205.674 207.148L205.287 206.832L205.287 206.832L205.674 207.148ZM223.447 176.045L223.913 176.227L223.947 176.139V176.045H223.447ZM223.447 159.639H223.947V159.625L223.946 159.611L223.447 159.639ZM222.593 144.258H222.093V144.272L222.094 144.286L222.593 144.258ZM235.581 137.764L235.191 138.076L235.196 138.083L235.201 138.089L235.581 137.764ZM237.632 143.745L238.131 143.781L238.132 143.763V143.745H237.632ZM236.606 157.93L236.108 157.894L236.106 157.912V157.93H236.606ZM236.606 221.504H236.106V221.514L236.107 221.523L236.606 221.504ZM237.632 247.993H238.132V247.983L238.131 247.974L237.632 247.993ZM235.239 254.487L234.886 254.134L234.879 254.14L234.873 254.147L235.239 254.487ZM223.605 242.539L223.947 230.747L222.947 230.718L222.606 242.51L223.605 242.539ZM223.947 230.732V203.73H222.947V230.732H223.947ZM223.019 203.473C207.026 230.127 183.444 247.08 152.24 254.342L152.467 255.316C183.926 247.995 207.74 230.882 223.876 203.988L223.019 203.473ZM152.241 254.342C142.375 256.61 130.85 257.747 117.661 257.747V258.747C130.904 258.747 142.508 257.606 152.466 255.316L152.241 254.342ZM117.661 257.747C104.629 257.747 91.0758 255.028 76.9969 249.578L76.6359 250.51C90.8122 255.998 104.488 258.747 117.661 258.747V257.747ZM76.9982 249.578C63.0463 244.134 50.7989 236.252 40.252 225.932L39.5527 226.646C50.1972 237.062 62.5592 245.017 76.6346 250.51L76.9982 249.578ZM40.2506 225.93C17.119 203.479 5.53906 173.936 5.53906 137.251H4.53906C4.53906 174.166 16.2014 203.982 39.5541 226.648L40.2506 225.93ZM5.53906 137.251C5.53906 102.177 17.7921 72.5122 42.305 48.2263L41.6012 47.5159C16.8954 71.993 4.53906 101.915 4.53906 137.251H5.53906ZM42.3035 48.2278C67.837 23.1482 99.8935 10.6025 138.511 10.6025V9.60254C99.654 9.60254 67.3388 22.2359 41.6028 47.5144L42.3035 48.2278ZM138.511 10.6025C158.044 10.6025 175.688 14.2363 191.451 21.4942L191.869 20.5859C175.959 13.2605 158.17 9.60254 138.511 9.60254V10.6025ZM191.456 21.4965C201.128 25.8203 207.9 29.8373 211.825 33.5376L212.511 32.81C208.46 28.9908 201.561 24.9186 191.864 20.5836L191.456 21.4965ZM211.831 33.5428C213.808 35.3512 215.273 36.973 216.239 38.4091C217.21 39.8509 217.649 41.0624 217.649 42.0605H218.649C218.649 40.78 218.092 39.3711 217.069 37.8507C216.042 36.3245 214.515 34.6423 212.505 32.8048L211.831 33.5428ZM217.649 42.0605C217.649 44.1099 217.006 45.8733 215.719 47.3748L216.478 48.0256C217.926 46.3369 218.649 44.3406 218.649 42.0605H217.649ZM215.719 47.3748C214.465 48.8375 212.68 49.5928 210.288 49.5928V50.5928C212.91 50.5928 214.998 49.753 216.478 48.0256L215.719 47.3748ZM210.288 49.5928C208.076 49.5928 205.514 48.3764 202.587 45.7876L201.925 46.5366C204.923 49.1887 207.715 50.5928 210.288 50.5928V49.5928ZM202.587 45.7873C193.793 38.0213 185.99 32.9044 179.181 30.4811L178.846 31.4232C185.482 33.785 193.173 38.8081 201.925 46.5369L202.587 45.7873ZM179.184 30.482C172.57 28.0872 167.255 26.3721 163.245 25.3409L162.996 26.3094C166.961 27.3291 172.242 29.0319 178.843 31.4223L179.184 30.482ZM163.245 25.3409C159.244 24.3122 155.637 23.5675 152.424 23.1085L152.283 24.0985C155.451 24.551 159.021 25.2874 162.996 26.3094L163.245 25.3409ZM152.423 23.1083C147.494 22.4206 141.659 22.0781 134.922 22.0781V23.0781C141.628 23.0781 147.415 23.4192 152.284 24.0987L152.423 23.1083ZM134.922 22.0781C128.172 22.0781 121.929 22.6501 116.196 23.7968L116.392 24.7774C122.052 23.6454 128.228 23.0781 134.922 23.0781V22.0781ZM115.794 24.2871V245.43H116.794V24.2871H115.794ZM116.249 245.928C117.517 246.043 118.785 246.101 120.054 246.101V245.101C118.816 245.101 117.577 245.044 116.339 244.932L116.249 245.928ZM120.054 246.101H123.472V245.101H120.054V246.101ZM123.472 246.101C157.456 246.101 185 233.219 206.061 207.465L205.287 206.832C184.421 232.348 157.163 245.101 123.472 245.101V246.101ZM206.061 207.465C213.276 198.647 219.225 188.232 223.913 176.227L222.982 175.863C218.327 187.784 212.427 198.105 205.287 206.832L206.061 207.465ZM223.947 176.045V159.639H222.947V176.045H223.947ZM223.447 159.639C223.946 159.611 223.946 159.611 223.946 159.611C223.946 159.611 223.946 159.611 223.946 159.611C223.946 159.611 223.946 159.611 223.946 159.61C223.946 159.61 223.946 159.61 223.946 159.61C223.946 159.61 223.946 159.61 223.946 159.609C223.946 159.609 223.946 159.609 223.946 159.609C223.946 159.609 223.946 159.608 223.946 159.608C223.946 159.608 223.946 159.607 223.946 159.607C223.946 159.607 223.946 159.607 223.946 159.606C223.946 159.606 223.946 159.605 223.946 159.605C223.946 159.605 223.946 159.603 223.946 159.602C223.946 159.6 223.946 159.602 223.946 159.599C223.946 159.599 223.946 159.596 223.946 159.596C223.946 159.594 223.946 159.594 223.945 159.592C223.945 159.592 223.945 159.588 223.945 159.587C223.945 159.584 223.945 159.582 223.945 159.577C223.944 159.558 223.944 159.573 223.943 159.551C223.942 159.539 223.94 159.498 223.939 159.476C223.939 159.467 223.938 159.461 223.938 159.452C223.938 159.452 223.936 159.428 223.936 159.427C223.935 159.407 223.936 159.42 223.935 159.4C223.933 159.376 223.934 159.395 223.933 159.371C223.93 159.317 223.922 159.164 223.916 159.07C223.916 159.065 223.915 159.053 223.915 159.047C223.915 159.044 223.915 159.04 223.915 159.036C223.914 159.032 223.914 159.028 223.914 159.024C223.914 159.02 223.913 159.016 223.913 159.012C223.913 159.008 223.913 159.004 223.913 159C223.912 158.991 223.912 158.986 223.911 158.976C223.91 158.955 223.91 158.949 223.908 158.927C223.908 158.913 223.908 158.915 223.907 158.901C223.907 158.897 223.907 158.892 223.906 158.888C223.906 158.884 223.906 158.879 223.906 158.875C223.904 158.855 223.905 158.869 223.904 158.848C223.903 158.831 223.904 158.839 223.903 158.821C223.902 158.803 223.901 158.785 223.9 158.766C223.898 158.745 223.899 158.759 223.898 158.738C223.898 158.733 223.897 158.728 223.897 158.723C223.897 158.718 223.897 158.714 223.896 158.709C223.895 158.693 223.896 158.696 223.895 158.679C223.893 158.655 223.894 158.675 223.893 158.65C223.89 158.596 223.882 158.458 223.879 158.394C223.879 158.389 223.878 158.383 223.878 158.377C223.878 158.372 223.877 158.366 223.877 158.36C223.877 158.355 223.876 158.349 223.876 158.343C223.876 158.337 223.875 158.332 223.875 158.326C223.875 158.316 223.874 158.301 223.873 158.291C223.873 158.285 223.873 158.279 223.872 158.273C223.872 158.267 223.872 158.261 223.871 158.255C223.871 158.247 223.868 158.192 223.867 158.183C223.867 158.177 223.866 158.171 223.866 158.165C223.866 158.159 223.865 158.152 223.865 158.146C223.865 158.14 223.864 158.134 223.864 158.128C223.864 158.121 223.863 158.115 223.863 158.109C223.86 158.05 223.858 158.016 223.854 157.955C223.854 157.948 223.854 157.942 223.853 157.935C223.853 157.929 223.853 157.922 223.852 157.915C223.852 157.909 223.852 157.902 223.851 157.895C223.851 157.889 223.85 157.882 223.85 157.875C223.848 157.846 223.849 157.864 223.848 157.835C223.847 157.828 223.847 157.821 223.847 157.814C223.846 157.807 223.846 157.8 223.846 157.793C223.845 157.787 223.845 157.78 223.844 157.773C223.844 157.766 223.844 157.759 223.843 157.752C223.842 157.725 223.842 157.737 223.841 157.71C223.841 157.706 223.836 157.629 223.836 157.624C223.833 157.57 223.829 157.505 223.826 157.448C223.826 157.442 223.822 157.364 223.821 157.357C223.82 157.332 223.82 157.336 223.819 157.311C223.818 157.303 223.818 157.295 223.817 157.287C223.817 157.28 223.817 157.272 223.816 157.264C223.816 157.256 223.815 157.248 223.815 157.24C223.814 157.233 223.814 157.225 223.813 157.217C223.812 157.192 223.812 157.194 223.811 157.169C223.81 157.161 223.81 157.153 223.81 157.145C223.809 157.137 223.809 157.129 223.808 157.121C223.808 157.113 223.807 157.105 223.807 157.097C223.806 157.089 223.806 157.081 223.805 157.072C223.802 157.015 223.798 156.934 223.794 156.873C223.794 156.865 223.793 156.857 223.793 156.848C223.793 156.84 223.792 156.831 223.792 156.823C223.791 156.814 223.791 156.805 223.79 156.797C223.79 156.788 223.789 156.78 223.789 156.771C223.788 156.75 223.787 156.74 223.786 156.719C223.785 156.711 223.785 156.702 223.784 156.693C223.784 156.684 223.783 156.676 223.783 156.667C223.782 156.658 223.782 156.649 223.781 156.641C223.781 156.632 223.78 156.623 223.78 156.614C223.779 156.594 223.778 156.582 223.777 156.561C223.777 156.552 223.776 156.543 223.776 156.534C223.775 156.525 223.775 156.516 223.774 156.507C223.774 156.498 223.773 156.489 223.773 156.48C223.772 156.471 223.772 156.462 223.771 156.453C223.768 156.392 223.762 156.294 223.759 156.231C223.758 156.222 223.758 156.213 223.757 156.203C223.757 156.194 223.756 156.184 223.756 156.175C223.755 156.165 223.755 156.156 223.754 156.146C223.753 156.137 223.753 156.127 223.752 156.118C223.751 156.101 223.75 156.077 223.749 156.06C223.749 156.051 223.748 156.041 223.748 156.031C223.747 156.022 223.747 156.012 223.746 156.002C223.745 155.993 223.745 155.983 223.744 155.973C223.744 155.963 223.743 155.954 223.743 155.944C223.742 155.926 223.74 155.902 223.739 155.885C223.739 155.875 223.738 155.865 223.738 155.855C223.737 155.845 223.737 155.836 223.736 155.826C223.736 155.816 223.735 155.806 223.735 155.796C223.734 155.786 223.733 155.776 223.733 155.766C223.73 155.712 223.722 155.578 223.719 155.522C223.719 155.511 223.718 155.501 223.718 155.491C223.717 155.48 223.716 155.47 223.716 155.459C223.715 155.449 223.715 155.439 223.714 155.428C223.714 155.418 223.713 155.407 223.712 155.397C223.712 155.384 223.71 155.347 223.709 155.334C223.708 155.323 223.708 155.313 223.707 155.302C223.707 155.291 223.706 155.281 223.705 155.27C223.705 155.259 223.704 155.249 223.704 155.238C223.703 155.227 223.702 155.217 223.702 155.206C223.701 155.193 223.699 155.155 223.698 155.141C223.698 155.131 223.697 155.12 223.696 155.109C223.696 155.098 223.695 155.087 223.695 155.076C223.694 155.066 223.693 155.055 223.693 155.044C223.692 155.033 223.692 155.022 223.691 155.011C223.688 154.957 223.679 154.8 223.676 154.744C223.676 154.733 223.675 154.722 223.674 154.71C223.674 154.699 223.673 154.688 223.672 154.677C223.672 154.665 223.671 154.654 223.67 154.642C223.67 154.631 223.669 154.62 223.669 154.608C223.668 154.597 223.665 154.551 223.665 154.539C223.664 154.528 223.663 154.516 223.663 154.505C223.662 154.493 223.662 154.482 223.661 154.47C223.658 154.414 223.656 154.388 223.653 154.33C223.652 154.319 223.652 154.307 223.651 154.295C223.651 154.283 223.65 154.272 223.649 154.26C223.649 154.248 223.648 154.236 223.647 154.224C223.647 154.212 223.646 154.2 223.645 154.189C223.642 154.13 223.633 153.96 223.629 153.899C223.629 153.887 223.628 153.875 223.627 153.863C223.626 153.851 223.626 153.838 223.625 153.826C223.624 153.814 223.624 153.801 223.623 153.789C223.622 153.777 223.622 153.764 223.621 153.752C223.621 153.745 223.617 153.685 223.617 153.678C223.616 153.665 223.615 153.653 223.615 153.64C223.614 153.628 223.613 153.615 223.613 153.603C223.609 153.544 223.608 153.511 223.604 153.452C223.604 153.439 223.603 153.426 223.602 153.414C223.601 153.401 223.601 153.388 223.6 153.375C223.599 153.363 223.599 153.35 223.598 153.337C223.597 153.324 223.597 153.311 223.596 153.299C223.595 153.293 223.592 153.227 223.592 153.221C223.591 153.209 223.59 153.196 223.589 153.183C223.589 153.17 223.588 153.157 223.587 153.144C223.584 153.086 223.582 153.045 223.578 152.987C223.578 152.974 223.577 152.961 223.576 152.947C223.576 152.934 223.575 152.921 223.574 152.908C223.573 152.895 223.573 152.881 223.572 152.868C223.571 152.855 223.57 152.842 223.57 152.828C223.569 152.824 223.565 152.753 223.565 152.748C223.564 152.735 223.564 152.721 223.563 152.708C223.562 152.695 223.562 152.681 223.561 152.668C223.558 152.614 223.555 152.56 223.552 152.505C223.551 152.492 223.55 152.478 223.549 152.464C223.549 152.451 223.548 152.437 223.547 152.423C223.546 152.41 223.546 152.396 223.545 152.382C223.544 152.369 223.543 152.355 223.543 152.341C223.543 152.341 223.538 152.258 223.538 152.258C223.537 152.244 223.536 152.231 223.536 152.217C223.535 152.203 223.534 152.189 223.533 152.175C223.53 152.119 223.527 152.063 223.524 152.007C223.523 151.993 223.522 151.979 223.522 151.965C223.521 151.95 223.52 151.936 223.519 151.922C223.519 151.908 223.518 151.894 223.517 151.88C223.516 151.865 223.515 151.851 223.515 151.837C223.514 151.823 223.513 151.808 223.512 151.794C223.511 151.78 223.511 151.766 223.51 151.751C223.51 151.747 223.505 151.67 223.505 151.665C223.502 151.611 223.498 151.546 223.495 151.491C223.495 151.487 223.491 151.409 223.491 151.404C223.49 151.389 223.489 151.375 223.488 151.36C223.487 151.345 223.486 151.331 223.486 151.316C223.485 151.301 223.484 151.287 223.483 151.272C223.482 151.257 223.482 151.242 223.481 151.227C223.48 151.223 223.476 151.143 223.476 151.139C223.473 151.082 223.469 151.016 223.466 150.959C223.465 150.953 223.461 150.876 223.461 150.869C223.46 150.854 223.459 150.839 223.458 150.823C223.457 150.808 223.457 150.793 223.456 150.778C223.455 150.763 223.454 150.748 223.453 150.732C223.452 150.717 223.452 150.702 223.451 150.687C223.45 150.68 223.446 150.602 223.446 150.595C223.443 150.54 223.438 150.465 223.435 150.41C223.435 150.403 223.431 150.324 223.43 150.317C223.429 150.301 223.428 150.286 223.428 150.27C223.427 150.254 223.426 150.239 223.425 150.223C223.424 150.208 223.423 150.192 223.422 150.176C223.421 150.161 223.421 150.145 223.42 150.129C223.419 150.12 223.415 150.043 223.414 150.035C223.411 149.978 223.407 149.901 223.404 149.844C223.403 149.835 223.399 149.757 223.399 149.748C223.398 149.732 223.397 149.716 223.396 149.7C223.395 149.684 223.394 149.668 223.393 149.651C223.392 149.635 223.391 149.619 223.391 149.603C223.39 149.587 223.389 149.571 223.388 149.555C223.387 149.538 223.386 149.522 223.385 149.506C223.384 149.49 223.383 149.473 223.382 149.457C223.379 149.399 223.375 149.319 223.371 149.261C223.371 149.245 223.37 149.228 223.369 149.212C223.368 149.195 223.367 149.179 223.366 149.162C223.365 149.146 223.364 149.129 223.363 149.113C223.362 149.096 223.361 149.079 223.36 149.063C223.36 149.046 223.359 149.03 223.358 149.013C223.357 148.996 223.356 148.98 223.355 148.963C223.354 148.946 223.353 148.93 223.352 148.913C223.351 148.896 223.35 148.88 223.349 148.863C223.346 148.803 223.342 148.721 223.338 148.661C223.337 148.644 223.336 148.627 223.335 148.61C223.334 148.593 223.333 148.576 223.333 148.559C223.332 148.542 223.331 148.525 223.33 148.508C223.329 148.491 223.328 148.474 223.327 148.457C223.326 148.44 223.325 148.423 223.324 148.406C223.323 148.389 223.322 148.372 223.321 148.355C223.32 148.338 223.319 148.321 223.318 148.303C223.317 148.286 223.316 148.269 223.315 148.252C223.312 148.194 223.307 148.102 223.304 148.044C223.303 148.027 223.302 148.01 223.301 147.992C223.3 147.975 223.299 147.957 223.298 147.94C223.297 147.922 223.296 147.905 223.295 147.887C223.294 147.87 223.293 147.852 223.292 147.835C223.291 147.817 223.29 147.8 223.289 147.782C223.288 147.765 223.287 147.747 223.286 147.73C223.285 147.712 223.284 147.694 223.283 147.677C223.283 147.659 223.282 147.641 223.281 147.624C223.277 147.565 223.272 147.47 223.269 147.411C223.268 147.393 223.267 147.375 223.266 147.357C223.265 147.339 223.264 147.321 223.263 147.303C223.262 147.285 223.261 147.268 223.26 147.25C223.259 147.232 223.258 147.214 223.257 147.196C223.256 147.178 223.255 147.16 223.254 147.142C223.253 147.124 223.252 147.106 223.251 147.087C223.25 147.069 223.249 147.051 223.248 147.033C223.247 147.015 223.246 146.997 223.245 146.979C223.241 146.918 223.236 146.821 223.233 146.76C223.232 146.742 223.231 146.723 223.23 146.705C223.228 146.687 223.227 146.668 223.226 146.65C223.225 146.632 223.224 146.613 223.223 146.595C223.222 146.576 223.221 146.558 223.22 146.539C223.219 146.521 223.218 146.503 223.217 146.484C223.216 146.466 223.215 146.447 223.214 146.428C223.213 146.41 223.212 146.391 223.211 146.373C223.21 146.354 223.209 146.336 223.208 146.317C223.204 146.255 223.199 146.155 223.195 146.093C223.194 146.074 223.193 146.055 223.192 146.036C223.191 146.017 223.19 145.999 223.189 145.98C223.188 145.961 223.187 145.942 223.186 145.923C223.185 145.904 223.184 145.885 223.183 145.866C223.182 145.847 223.181 145.828 223.18 145.81C223.179 145.791 223.178 145.772 223.177 145.753C223.176 145.734 223.174 145.714 223.173 145.695C223.172 145.676 223.171 145.657 223.17 145.638C223.167 145.579 223.161 145.468 223.157 145.408C223.156 145.389 223.155 145.37 223.154 145.35C223.153 145.331 223.152 145.312 223.151 145.293C223.15 145.273 223.149 145.254 223.148 145.235C223.147 145.215 223.146 145.196 223.145 145.176C223.143 145.157 223.142 145.138 223.141 145.118C223.14 145.099 223.139 145.079 223.138 145.06C223.137 145.04 223.136 145.021 223.135 145.001C223.134 144.982 223.133 144.962 223.132 144.943C223.129 144.89 223.121 144.76 223.118 144.707C223.117 144.687 223.116 144.668 223.115 144.648C223.114 144.628 223.113 144.608 223.112 144.588C223.111 144.569 223.11 144.549 223.109 144.529C223.108 144.509 223.106 144.489 223.105 144.469C223.104 144.45 223.103 144.43 223.102 144.41C223.101 144.39 223.1 144.37 223.099 144.35C223.098 144.33 223.096 144.31 223.095 144.29C223.094 144.27 223.093 144.25 223.092 144.23L222.094 144.286C222.097 144.341 222.097 144.35 222.1 144.405C222.101 144.428 222.106 144.503 222.107 144.525C222.11 144.582 222.117 144.706 222.12 144.762C222.121 144.782 222.126 144.861 222.127 144.88C222.127 144.883 222.133 144.996 222.133 144.998C222.136 145.052 222.137 145.061 222.14 145.115C222.141 145.135 222.145 145.212 222.146 145.232C222.149 145.288 222.156 145.408 222.159 145.464C222.16 145.483 222.164 145.56 222.165 145.579C222.166 145.581 222.172 145.692 222.172 145.694C222.175 145.749 222.175 145.753 222.178 145.808C222.179 145.827 222.183 145.903 222.184 145.922C222.187 145.977 222.194 146.094 222.197 146.148C222.198 146.167 222.202 146.242 222.203 146.26C222.204 146.279 222.205 146.298 222.206 146.317C222.207 146.335 222.208 146.354 222.209 146.372C222.212 146.426 222.213 146.43 222.216 146.484C222.217 146.5 222.221 146.579 222.222 146.595C222.225 146.648 222.231 146.763 222.234 146.816C222.235 146.832 222.239 146.909 222.24 146.925C222.241 146.943 222.242 146.962 222.243 146.98C222.244 146.998 222.245 147.016 222.246 147.034C222.249 147.089 222.249 147.089 222.252 147.143C222.253 147.159 222.257 147.235 222.258 147.251C222.261 147.307 222.267 147.411 222.27 147.466C222.271 147.482 222.275 147.557 222.276 147.573C222.276 147.575 222.282 147.677 222.282 147.679C222.285 147.732 222.285 147.732 222.288 147.785C222.289 147.799 222.293 147.877 222.294 147.89C222.297 147.945 222.302 148.046 222.305 148.1C222.306 148.113 222.31 148.19 222.311 148.204C222.311 148.206 222.317 148.305 222.317 148.307C222.32 148.361 222.32 148.357 222.323 148.41C222.323 148.424 222.328 148.5 222.328 148.513C222.331 148.566 222.337 148.664 222.34 148.717C222.34 148.73 222.345 148.805 222.345 148.818C222.346 148.835 222.347 148.851 222.348 148.868C222.349 148.885 222.35 148.902 222.351 148.918C222.354 148.974 222.353 148.963 222.356 149.019C222.357 149.03 222.361 149.107 222.362 149.118C222.365 149.17 222.37 149.265 222.373 149.316C222.374 149.327 222.378 149.404 222.379 149.415C222.379 149.431 222.38 149.447 222.381 149.464C222.382 149.48 222.383 149.496 222.384 149.513C222.387 149.569 222.386 149.554 222.389 149.61C222.39 149.621 222.394 149.696 222.395 149.707C222.398 149.761 222.402 149.846 222.405 149.899C222.406 149.905 222.41 149.99 222.411 149.995C222.411 149.997 222.416 150.088 222.416 150.09C222.417 150.106 222.418 150.122 222.419 150.137C222.42 150.153 222.42 150.169 222.421 150.185C222.422 150.19 222.426 150.273 222.426 150.279C222.429 150.331 222.434 150.414 222.437 150.465C222.437 150.471 222.442 150.553 222.442 150.558C222.442 150.56 222.447 150.649 222.447 150.65C222.448 150.666 222.449 150.681 222.45 150.696C222.451 150.712 222.451 150.727 222.452 150.742C222.452 150.746 222.457 150.83 222.457 150.833C222.46 150.884 222.465 150.965 222.467 151.015C222.468 151.018 222.472 151.101 222.472 151.105C222.473 151.12 222.474 151.134 222.475 151.149C222.476 151.164 222.477 151.179 222.477 151.194C222.478 151.209 222.479 151.224 222.48 151.239C222.481 151.253 222.481 151.268 222.482 151.283C222.482 151.286 222.487 151.368 222.487 151.371C222.49 151.424 222.494 151.495 222.497 151.547C222.497 151.549 222.502 151.632 222.502 151.634C222.502 151.636 222.507 151.719 222.507 151.721C222.507 151.735 222.508 151.749 222.509 151.764C222.51 151.778 222.511 151.792 222.511 151.807C222.511 151.809 222.516 151.891 222.516 151.892C222.519 151.949 222.522 152.006 222.526 152.062C222.526 152.064 222.53 152.145 222.53 152.147C222.531 152.161 222.532 152.175 222.533 152.189C222.533 152.203 222.534 152.216 222.535 152.23C222.536 152.244 222.536 152.258 222.537 152.272C222.538 152.286 222.539 152.3 222.54 152.314C222.54 152.328 222.541 152.341 222.542 152.355C222.543 152.369 222.543 152.383 222.544 152.397C222.547 152.452 222.55 152.506 222.553 152.561C222.554 152.574 222.555 152.588 222.556 152.602C222.556 152.615 222.557 152.629 222.558 152.642C222.558 152.644 222.562 152.722 222.562 152.723C222.562 152.725 222.567 152.802 222.567 152.804C222.568 152.817 222.568 152.83 222.569 152.844C222.57 152.857 222.57 152.87 222.571 152.884C222.574 152.94 222.577 152.987 222.58 153.042C222.581 153.056 222.581 153.069 222.582 153.082C222.583 153.095 222.584 153.108 222.584 153.121C222.584 153.123 222.589 153.198 222.589 153.199C222.589 153.202 222.593 153.274 222.593 153.277C222.594 153.29 222.594 153.303 222.595 153.316C222.596 153.328 222.597 153.341 222.597 153.354C222.6 153.408 222.603 153.454 222.606 153.507C222.607 153.52 222.607 153.532 222.608 153.545C222.609 153.558 222.609 153.57 222.61 153.583C222.61 153.584 222.614 153.657 222.614 153.658C222.614 153.662 222.618 153.729 222.618 153.733C222.619 153.746 222.62 153.758 222.62 153.77C222.621 153.783 222.622 153.795 222.623 153.808C222.626 153.862 222.628 153.901 222.631 153.955C222.631 153.967 222.632 153.979 222.633 153.991C222.633 154.004 222.634 154.016 222.635 154.028C222.635 154.029 222.639 154.099 222.639 154.1C222.639 154.108 222.642 154.165 222.643 154.172C222.643 154.184 222.644 154.196 222.645 154.208C222.645 154.22 222.646 154.232 222.647 154.244C222.65 154.297 222.652 154.334 222.655 154.386C222.655 154.398 222.656 154.409 222.657 154.421C222.657 154.433 222.658 154.444 222.659 154.456C222.659 154.457 222.662 154.524 222.662 154.526C222.663 154.535 222.666 154.586 222.666 154.595C222.667 154.606 222.668 154.618 222.668 154.629C222.669 154.641 222.669 154.652 222.67 154.664C222.673 154.717 222.675 154.747 222.678 154.8C222.678 154.811 222.679 154.822 222.68 154.834C222.68 154.845 222.681 154.856 222.681 154.867C222.682 154.878 222.683 154.89 222.683 154.901C222.684 154.912 222.685 154.923 222.685 154.934C222.686 154.944 222.688 154.991 222.689 155C222.689 155.012 222.69 155.023 222.691 155.034C222.691 155.044 222.692 155.055 222.692 155.066C222.695 155.118 222.697 155.146 222.7 155.197C222.701 155.228 222.705 155.295 222.707 155.326C222.71 155.382 222.718 155.523 222.721 155.577C222.722 155.605 222.726 155.673 222.728 155.7C222.729 155.715 222.73 155.746 222.731 155.761C222.732 155.771 222.732 155.781 222.733 155.791C222.733 155.801 222.734 155.811 222.734 155.821C222.738 155.877 222.738 155.885 222.741 155.94C222.742 155.96 222.746 156.038 222.748 156.058C222.751 156.114 222.757 156.233 222.76 156.287C222.761 156.304 222.766 156.382 222.766 156.399C222.768 156.417 222.769 156.435 222.77 156.454C222.77 156.463 222.771 156.472 222.771 156.481C222.772 156.49 222.772 156.499 222.773 156.508C222.776 156.563 222.776 156.563 222.779 156.616C222.779 156.631 222.784 156.709 222.784 156.722C222.788 156.777 222.793 156.877 222.796 156.929C222.797 156.941 222.801 157.018 222.802 157.029C222.803 157.052 222.803 157.057 222.804 157.079C222.805 157.087 222.805 157.095 222.806 157.103C222.806 157.112 222.807 157.12 222.807 157.128C222.81 157.184 222.809 157.169 222.812 157.225C222.813 157.23 222.817 157.314 222.818 157.319C222.821 157.372 222.825 157.454 222.828 157.503C222.828 157.507 222.833 157.589 222.833 157.593C222.833 157.595 222.838 157.679 222.838 157.68C222.838 157.687 222.838 157.694 222.839 157.701C222.839 157.709 222.84 157.716 222.84 157.723C222.842 157.749 222.841 157.739 222.842 157.765C222.843 157.772 222.843 157.779 222.844 157.786C222.844 157.793 222.844 157.8 222.845 157.807C222.845 157.814 222.846 157.821 222.846 157.828C222.846 157.835 222.847 157.842 222.847 157.849C222.85 157.904 222.853 157.958 222.856 158.01C222.856 158.017 222.857 158.024 222.857 158.03C222.857 158.037 222.858 158.043 222.858 158.05C222.859 158.056 222.859 158.063 222.859 158.069C222.86 158.075 222.86 158.082 222.86 158.088C222.862 158.118 222.861 158.097 222.862 158.127C222.863 158.133 222.863 158.139 222.864 158.146C222.864 158.152 222.864 158.158 222.865 158.164C222.865 158.169 222.869 158.235 222.869 158.239C222.869 158.245 222.869 158.251 222.87 158.257C222.87 158.263 222.87 158.269 222.871 158.275C222.871 158.281 222.871 158.287 222.872 158.293C222.872 158.299 222.872 158.305 222.873 158.311C222.876 158.364 222.878 158.399 222.88 158.45C222.882 158.483 222.886 158.55 222.888 158.581C222.889 158.595 222.89 158.631 222.891 158.644C222.892 158.649 222.892 158.654 222.892 158.66C222.892 158.665 222.893 158.67 222.893 158.675C222.893 158.68 222.894 158.685 222.894 158.69C222.894 158.695 222.894 158.7 222.895 158.705C222.898 158.761 222.898 158.768 222.901 158.822C222.902 158.838 222.906 158.917 222.907 158.93C222.91 158.985 222.916 159.081 222.918 159.126C222.919 159.144 222.918 159.13 222.919 159.148C222.919 159.152 222.92 159.155 222.92 159.159C222.92 159.163 222.92 159.166 222.92 159.17C222.921 159.173 222.921 159.177 222.921 159.181C222.921 159.184 222.921 159.188 222.922 159.191C222.922 159.205 222.922 159.198 222.923 159.212C222.924 159.24 222.923 159.225 222.925 159.252C222.926 159.261 222.926 159.263 222.926 159.272C222.927 159.284 222.926 159.279 222.927 159.291C222.928 159.298 222.931 159.358 222.931 159.362C222.931 159.365 222.931 159.368 222.932 159.371C222.932 159.373 222.932 159.376 222.932 159.379C222.932 159.382 222.932 159.384 222.933 159.387C222.933 159.39 222.933 159.392 222.933 159.395C222.933 159.397 222.934 159.409 222.934 159.411C222.934 159.416 222.934 159.421 222.935 159.426C222.938 159.482 222.938 159.486 222.941 159.531C222.941 159.546 222.941 159.538 222.942 159.553C222.942 159.565 222.942 159.561 222.943 159.573C222.943 159.574 222.943 159.576 222.943 159.577C222.943 159.579 222.943 159.58 222.943 159.582C222.943 159.583 222.943 159.585 222.944 159.586C222.944 159.588 222.944 159.589 222.944 159.59C222.944 159.597 222.944 159.601 222.945 159.606C222.946 159.628 222.947 159.64 222.947 159.651C222.947 159.654 222.948 159.662 222.948 159.663C222.948 159.664 222.948 159.665 222.948 159.665C222.948 159.666 222.948 159.666 222.948 159.666C222.948 159.666 222.948 159.666 222.948 159.666C222.948 159.666 222.948 159.666 223.447 159.639ZM223.093 144.258C223.093 141.291 223.683 139.159 224.779 137.775C225.858 136.414 227.49 135.7 229.771 135.7V134.7C227.266 134.7 225.309 135.496 223.995 137.154C222.699 138.79 222.093 141.186 222.093 144.258H223.093ZM229.771 135.7C232.15 135.7 233.933 136.504 235.191 138.076L235.971 137.451C234.495 135.606 232.404 134.7 229.771 134.7V135.7ZM235.201 138.089C236.48 139.581 237.132 141.454 237.132 143.745H238.132C238.132 141.251 237.416 139.136 235.961 137.438L235.201 138.089ZM237.133 143.709L236.108 157.894L237.105 157.966L238.131 143.781L237.133 143.709ZM236.106 157.93V221.504H237.106V157.93H236.106ZM236.107 221.523L237.132 248.013L238.131 247.974L237.106 221.485L236.107 221.523ZM237.132 247.993C237.132 250.625 236.368 252.652 234.886 254.134L235.593 254.841C237.301 253.133 238.132 250.83 238.132 247.993H237.132ZM234.873 254.147C233.48 255.647 231.844 256.38 229.941 256.38V257.38C232.141 257.38 234.036 256.517 235.606 254.828L234.873 254.147ZM229.941 256.38C227.518 256.38 225.79 255.748 224.663 254.569C223.532 253.386 222.922 251.567 222.922 249.019H221.922C221.922 251.711 222.565 253.823 223.94 255.26C225.32 256.702 227.352 257.38 229.941 257.38V256.38ZM222.922 249.019C222.922 247.692 223.144 245.56 223.6 242.6L222.611 242.448C222.155 245.413 221.922 247.61 221.922 249.019H222.922Z" fill="black"/>
</g>
<g filter="url(#filter1_d_0_1)">
<path d="M455.105 455.524L455.447 443.732V416.73C439.383 443.505 415.685 460.537 384.354 467.829C374.441 470.108 362.877 471.247 349.661 471.247C336.559 471.247 322.944 468.513 308.816 463.044C294.803 457.575 282.498 449.657 271.902 439.289C248.66 416.73 237.039 387.051 237.039 350.251C237.039 315.046 249.344 285.253 273.953 260.871C299.588 235.692 331.774 223.103 370.511 223.103C390.107 223.103 407.824 226.748 423.66 234.04C433.344 238.369 440.18 242.414 444.168 246.174C448.156 249.82 450.149 252.782 450.149 255.061C450.149 257.225 449.466 259.105 448.099 260.7C446.731 262.295 444.795 263.093 442.288 263.093C439.896 263.093 437.218 261.783 434.256 259.162C425.483 251.415 417.736 246.345 411.014 243.952C404.406 241.56 399.108 239.851 395.12 238.825C391.132 237.8 387.544 237.059 384.354 236.604C379.454 235.92 373.644 235.578 366.922 235.578C360.2 235.578 353.991 236.148 348.294 237.287V458.43C349.547 458.544 350.8 458.601 352.054 458.601H355.472C389.31 458.601 416.71 445.783 437.674 420.148C444.852 411.376 450.776 401.008 455.447 389.045V372.639C455.447 372.639 455.162 367.512 454.593 357.258C454.593 351.219 456.985 348.2 461.771 348.2C464.277 348.2 466.214 349.055 467.581 350.764C468.948 352.359 469.632 354.353 469.632 356.745L468.606 370.93V434.504L469.632 460.993C469.632 463.728 468.834 465.892 467.239 467.487C465.758 469.082 463.992 469.88 461.941 469.88C456.928 469.88 454.422 467.259 454.422 462.019C454.422 460.651 454.65 458.487 455.105 455.524Z" fill="white"/>
</g>
<path d="M98.1836 380.164C92.3893 381.922 89.4922 383.842 89.4922 385.926C89.4922 387.944 91.1849 389.344 94.5703 390.125C101.146 391.688 110.195 392.632 121.719 392.957C133.242 393.217 141.901 394.096 147.695 395.594C153.555 397.026 158.21 398.849 161.66 401.062C167.91 405.164 171.035 410.6 171.035 417.371C171.035 425.835 166.836 432.703 158.438 437.977C149.128 443.771 136.009 446.668 119.082 446.668C101.569 446.668 87.1159 444.064 75.7227 438.855C71.6211 436.837 69.5703 434.559 69.5703 432.02C69.5703 430.913 69.9609 430.034 70.7422 429.383C71.5885 428.732 72.4674 428.406 73.3789 428.406C74.4857 428.406 75.7552 428.829 77.1875 429.676C80.5078 431.564 83.5677 433.126 86.3672 434.363C89.2318 435.665 93.6914 436.902 99.7461 438.074C105.801 439.246 111.628 439.832 117.227 439.832C122.891 439.832 127.48 439.572 130.996 439.051C134.577 438.595 137.539 438.042 139.883 437.391C144.505 436.023 146.816 434.493 146.816 432.801C146.816 431.238 146.361 430.099 145.449 429.383C144.538 428.667 143.333 428.016 141.836 427.43C140.404 426.909 138.385 426.421 135.781 425.965C130.443 425.053 123.184 424.37 114.004 423.914C104.824 423.458 97.5651 422.547 92.2266 421.18C86.888 419.878 82.526 418.185 79.1406 416.102C72.5651 412.13 69.2773 406.759 69.2773 399.988C69.2773 390.223 75.8854 382.312 89.1016 376.258C83.0469 372.938 78.2292 368.576 74.6484 363.172C71.0677 357.703 69.2773 351.811 69.2773 345.496C69.2773 339.116 70.4492 333.615 72.793 328.992C75.2018 324.305 78.5547 320.268 82.8516 316.883C91.901 309.591 103.587 305.945 117.91 305.945C124.29 305.945 130.703 306.922 137.148 308.875C146.393 299.956 154.954 295.496 162.832 295.496C166.152 295.496 168.594 296.049 170.156 297.156C171.784 298.263 172.598 299.663 172.598 301.355C172.598 303.048 172.044 304.285 170.938 305.066C169.831 305.783 168.789 306.141 167.812 306.141C166.055 306.141 164.557 305.945 163.32 305.555C161.497 304.904 159.642 304.578 157.754 304.578C154.238 304.578 149.811 307.02 144.473 311.902C155.085 317.111 162.018 324.598 165.273 334.363C166.315 337.618 166.836 341.622 166.836 346.375C166.836 351.062 165.469 355.75 162.734 360.438C160 365.125 156.354 369.161 151.797 372.547C142.292 379.578 131.126 383.094 118.301 383.094C111.53 383.224 104.824 382.247 98.1836 380.164ZM118.691 375.965C129.238 375.835 138.32 373.263 145.938 368.25C154.727 362.521 159.121 354.773 159.121 345.008C159.121 335.242 154.792 327.365 146.133 321.375C138.19 315.906 129.043 313.074 118.691 312.879V375.965Z" fill="white"/>
<path d="M286.092 355.082C283.195 355.961 281.746 356.921 281.746 357.963C281.746 358.972 282.592 359.672 284.285 360.062C287.573 360.844 292.098 361.316 297.859 361.479C303.621 361.609 307.951 362.048 310.848 362.797C313.777 363.513 316.105 364.424 317.83 365.531C320.955 367.582 322.518 370.3 322.518 373.686C322.518 377.917 320.418 381.352 316.219 383.988C311.564 386.885 305.005 388.334 296.541 388.334C287.785 388.334 280.558 387.032 274.861 384.428C272.811 383.419 271.785 382.279 271.785 381.01C271.785 380.456 271.98 380.017 272.371 379.691C272.794 379.366 273.234 379.203 273.689 379.203C274.243 379.203 274.878 379.415 275.594 379.838C277.254 380.782 278.784 381.563 280.184 382.182C281.616 382.833 283.846 383.451 286.873 384.037C289.9 384.623 292.814 384.916 295.613 384.916C298.445 384.916 300.74 384.786 302.498 384.525C304.288 384.298 305.77 384.021 306.941 383.695C309.253 383.012 310.408 382.247 310.408 381.4C310.408 380.619 310.18 380.049 309.725 379.691C309.269 379.333 308.667 379.008 307.918 378.715C307.202 378.454 306.193 378.21 304.891 377.982C302.221 377.527 298.592 377.185 294.002 376.957C289.412 376.729 285.783 376.273 283.113 375.59C280.444 374.939 278.263 374.092 276.57 373.051C273.283 371.065 271.639 368.38 271.639 364.994C271.639 360.111 274.943 356.156 281.551 353.129C278.523 351.469 276.115 349.288 274.324 346.586C272.534 343.852 271.639 340.906 271.639 337.748C271.639 334.558 272.225 331.807 273.396 329.496C274.601 327.152 276.277 325.134 278.426 323.441C282.951 319.796 288.794 317.973 295.955 317.973C299.145 317.973 302.352 318.461 305.574 319.438C310.197 314.978 314.477 312.748 318.416 312.748C320.076 312.748 321.297 313.025 322.078 313.578C322.892 314.132 323.299 314.831 323.299 315.678C323.299 316.524 323.022 317.143 322.469 317.533C321.915 317.891 321.395 318.07 320.906 318.07C320.027 318.07 319.279 317.973 318.66 317.777C317.749 317.452 316.821 317.289 315.877 317.289C314.119 317.289 311.906 318.51 309.236 320.951C314.542 323.555 318.009 327.299 319.637 332.182C320.158 333.809 320.418 335.811 320.418 338.188C320.418 340.531 319.734 342.875 318.367 345.219C317 347.562 315.177 349.581 312.898 351.273C308.146 354.789 302.563 356.547 296.15 356.547C292.765 356.612 289.412 356.124 286.092 355.082ZM296.346 352.982C301.619 352.917 306.16 351.632 309.969 349.125C314.363 346.26 316.561 342.387 316.561 337.504C316.561 332.621 314.396 328.682 310.066 325.688C306.095 322.953 301.521 321.537 296.346 321.439V352.982Z" fill="black"/>
<path d="M52.0918 143.082C49.1947 143.961 47.7461 144.921 47.7461 145.963C47.7461 146.972 48.5924 147.672 50.2852 148.062C53.5729 148.844 58.0977 149.316 63.8594 149.479C69.6211 149.609 73.9505 150.048 76.8477 150.797C79.7773 151.513 82.1048 152.424 83.8301 153.531C86.9551 155.582 88.5176 158.3 88.5176 161.686C88.5176 165.917 86.418 169.352 82.2188 171.988C77.5638 174.885 71.0046 176.334 62.541 176.334C53.7845 176.334 46.5579 175.032 40.8613 172.428C38.8105 171.419 37.7852 170.279 37.7852 169.01C37.7852 168.456 37.9805 168.017 38.3711 167.691C38.7943 167.366 39.2337 167.203 39.6895 167.203C40.2428 167.203 40.8776 167.415 41.5938 167.838C43.2539 168.782 44.7839 169.563 46.1836 170.182C47.6159 170.833 49.8457 171.451 52.873 172.037C55.9004 172.623 58.8138 172.916 61.6133 172.916C64.4453 172.916 66.7402 172.786 68.498 172.525C70.2884 172.298 71.7695 172.021 72.9414 171.695C75.2526 171.012 76.4082 170.247 76.4082 169.4C76.4082 168.619 76.1803 168.049 75.7246 167.691C75.2689 167.333 74.6667 167.008 73.918 166.715C73.2018 166.454 72.1927 166.21 70.8906 165.982C68.2214 165.527 64.5918 165.185 60.002 164.957C55.4121 164.729 51.7826 164.273 49.1133 163.59C46.444 162.939 44.263 162.092 42.5703 161.051C39.2826 159.065 37.6387 156.38 37.6387 152.994C37.6387 148.111 40.9427 144.156 47.5508 141.129C44.5234 139.469 42.1146 137.288 40.3242 134.586C38.5339 131.852 37.6387 128.906 37.6387 125.748C37.6387 122.558 38.2246 119.807 39.3965 117.496C40.6009 115.152 42.2773 113.134 44.4258 111.441C48.9505 107.796 54.7936 105.973 61.9551 105.973C65.1452 105.973 68.3516 106.461 71.5742 107.438C76.1966 102.978 80.4772 100.748 84.416 100.748C86.0762 100.748 87.2969 101.025 88.0781 101.578C88.8919 102.132 89.2988 102.831 89.2988 103.678C89.2988 104.524 89.0221 105.143 88.4688 105.533C87.9154 105.891 87.3945 106.07 86.9062 106.07C86.0273 106.07 85.2786 105.973 84.6602 105.777C83.7487 105.452 82.821 105.289 81.877 105.289C80.1191 105.289 77.9056 106.51 75.2363 108.951C80.5423 111.555 84.0091 115.299 85.6367 120.182C86.1576 121.809 86.418 123.811 86.418 126.188C86.418 128.531 85.7344 130.875 84.3672 133.219C83 135.562 81.1771 137.581 78.8984 139.273C74.1458 142.789 68.5632 144.547 62.1504 144.547C58.765 144.612 55.4121 144.124 52.0918 143.082ZM62.3457 140.982C67.6191 140.917 72.1602 139.632 75.9688 137.125C80.3633 134.26 82.5605 130.387 82.5605 125.504C82.5605 120.621 80.3958 116.682 76.0664 113.688C72.0951 110.953 67.5215 109.537 62.3457 109.439V140.982Z" fill="black"/>
<g filter="url(#filter2_d_0_1)">
<path d="M111.631 360.04L111.685 358.187V353.943C109.16 358.151 105.436 360.827 100.513 361.973C98.9551 362.331 97.1379 362.51 95.061 362.51C93.0021 362.51 90.8626 362.081 88.6426 361.221C86.4404 360.362 84.5068 359.118 82.8418 357.488C79.1895 353.943 77.3633 349.279 77.3633 343.497C77.3633 337.964 79.2969 333.283 83.1641 329.451C87.1924 325.494 92.2502 323.516 98.3374 323.516C101.417 323.516 104.201 324.089 106.689 325.235C108.211 325.915 109.285 326.551 109.912 327.142C110.539 327.715 110.852 328.18 110.852 328.538C110.852 328.878 110.745 329.174 110.53 329.424C110.315 329.675 110.011 329.8 109.617 329.8C109.241 329.8 108.82 329.594 108.354 329.183C106.976 327.965 105.758 327.168 104.702 326.792C103.664 326.417 102.831 326.148 102.205 325.987C101.578 325.826 101.014 325.709 100.513 325.638C99.7428 325.53 98.8298 325.477 97.7734 325.477C96.7171 325.477 95.7414 325.566 94.8462 325.745V360.496C95.0431 360.514 95.2401 360.523 95.437 360.523H95.9741C101.292 360.523 105.597 358.509 108.892 354.48C110.02 353.102 110.951 351.473 111.685 349.593V347.015C111.685 347.015 111.64 346.209 111.55 344.598C111.55 343.649 111.926 343.174 112.678 343.174C113.072 343.174 113.376 343.309 113.591 343.577C113.806 343.828 113.914 344.141 113.914 344.517L113.752 346.746V356.736L113.914 360.899C113.914 361.329 113.788 361.669 113.538 361.919C113.305 362.17 113.027 362.295 112.705 362.295C111.917 362.295 111.523 361.884 111.523 361.06C111.523 360.845 111.559 360.505 111.631 360.04Z" fill="black"/>
<path d="M111.631 360.04L112.125 360.116L112.13 360.085L112.131 360.054L111.631 360.04ZM111.685 358.187L112.184 358.201L112.185 358.194V358.187H111.685ZM111.685 353.943H112.185V352.138L111.256 353.686L111.685 353.943ZM100.513 361.973L100.625 362.46L100.626 362.46L100.513 361.973ZM88.6426 361.221L88.4608 361.687L88.4621 361.687L88.6426 361.221ZM82.8418 357.488L83.1915 357.131L83.19 357.129L82.8418 357.488ZM83.1641 329.451L82.8137 329.094L82.8122 329.096L83.1641 329.451ZM106.689 325.235L106.48 325.689L106.485 325.691L106.689 325.235ZM109.912 327.142L109.569 327.505L109.575 327.511L109.912 327.142ZM108.354 329.183L108.686 328.808L108.685 328.808L108.354 329.183ZM104.702 326.792L104.532 327.263L104.534 327.264L104.702 326.792ZM102.205 325.987L102.329 325.503L102.205 325.987ZM100.513 325.638L100.583 325.143L100.582 325.142L100.513 325.638ZM94.8462 325.745L94.7481 325.255L94.3462 325.335V325.745H94.8462ZM94.8462 360.496H94.3462V360.953L94.8009 360.994L94.8462 360.496ZM108.892 354.48L108.505 354.164L108.505 354.164L108.892 354.48ZM111.685 349.593L112.15 349.775L112.185 349.687V349.593H111.685ZM111.685 347.015H112.185V347.001L112.184 346.987L111.685 347.015ZM111.55 344.598H111.05V344.612L111.051 344.625L111.55 344.598ZM113.591 343.577L113.201 343.889L113.206 343.896L113.212 343.903L113.591 343.577ZM113.914 344.517L114.412 344.553L114.414 344.535V344.517H113.914ZM113.752 346.746L113.254 346.71L113.252 346.728V346.746H113.752ZM113.752 356.736H113.252V356.746L113.253 356.756L113.752 356.736ZM113.914 360.899H114.414V360.889L114.413 360.88L113.914 360.899ZM113.538 361.919L113.184 361.566L113.177 361.572L113.171 361.579L113.538 361.919ZM112.131 360.054L112.184 358.201L111.185 358.172L111.131 360.025L112.131 360.054ZM112.185 358.187V353.943H111.185V358.187H112.185ZM111.256 353.686C108.803 357.773 105.195 360.37 100.399 361.486L100.626 362.46C105.677 361.285 109.517 358.528 112.113 354.201L111.256 353.686ZM100.401 361.486C98.8888 361.833 97.1107 362.01 95.061 362.01V363.01C97.165 363.01 99.0213 362.829 100.625 362.46L100.401 361.486ZM95.061 362.01C93.0727 362.01 90.9944 361.595 88.8231 360.755L88.4621 361.687C90.7308 362.566 92.9315 363.01 95.061 363.01V362.01ZM88.8243 360.755C86.684 359.92 84.8077 358.712 83.1915 357.131L82.4921 357.846C84.206 359.523 86.1969 360.804 88.4608 361.687L88.8243 360.755ZM83.19 357.129C79.6483 353.692 77.8633 349.164 77.8633 343.497H76.8633C76.8633 349.395 78.7306 354.195 82.4936 357.847L83.19 357.129ZM77.8633 343.497C77.8633 338.095 79.7453 333.542 83.516 329.806L82.8122 329.096C78.8485 333.023 76.8633 337.833 76.8633 343.497H77.8633ZM83.5144 329.808C87.4415 325.951 92.3699 324.016 98.3374 324.016V323.016C92.1304 323.016 86.9433 325.038 82.8137 329.094L83.5144 329.808ZM98.3374 324.016C101.354 324.016 104.065 324.577 106.48 325.689L106.899 324.781C104.337 323.601 101.48 323.016 98.3374 323.016V324.016ZM106.485 325.691C107.995 326.366 109.006 326.974 109.569 327.505L110.255 326.778C109.565 326.128 108.428 325.464 106.894 324.778L106.485 325.691ZM109.575 327.511C109.872 327.782 110.076 328.012 110.202 328.2C110.332 328.393 110.352 328.5 110.352 328.538H111.352C111.352 328.218 111.215 327.913 111.032 327.641C110.845 327.363 110.579 327.074 110.249 326.773L109.575 327.511ZM110.352 328.538C110.352 328.763 110.285 328.942 110.15 329.099L110.909 329.75C111.204 329.405 111.352 328.994 111.352 328.538H110.352ZM110.15 329.099C110.049 329.217 109.896 329.3 109.617 329.3V330.3C110.126 330.3 110.581 330.133 110.909 329.75L110.15 329.099ZM109.617 329.3C109.421 329.3 109.116 329.188 108.686 328.808L108.023 329.557C108.524 330.001 109.061 330.3 109.617 330.3V329.3ZM108.685 328.808C107.286 327.572 106.012 326.728 104.87 326.321L104.534 327.264C105.504 327.609 106.666 328.359 108.024 329.557L108.685 328.808ZM104.872 326.322C103.828 325.944 102.978 325.669 102.329 325.503L102.08 326.471C102.684 326.626 103.5 326.889 104.532 327.263L104.872 326.322ZM102.329 325.503C101.689 325.338 101.107 325.218 100.583 325.143L100.442 326.133C100.921 326.201 101.467 326.313 102.08 326.471L102.329 325.503ZM100.582 325.142C99.7826 325.031 98.8453 324.977 97.7734 324.977V325.977C98.8142 325.977 99.7031 326.03 100.444 326.133L100.582 325.142ZM97.7734 324.977C96.6892 324.977 95.6802 325.068 94.7481 325.255L94.9442 326.235C95.8026 326.064 96.745 325.977 97.7734 325.977V324.977ZM94.3462 325.745V360.496H95.3462V325.745H94.3462ZM94.8009 360.994C95.0129 361.013 95.2249 361.023 95.437 361.023V360.023C95.2552 360.023 95.0734 360.015 94.8915 359.998L94.8009 360.994ZM95.437 361.023H95.9741V360.023H95.437V361.023ZM95.9741 361.023C101.438 361.023 105.887 358.944 109.279 354.797L108.505 354.164C105.308 358.073 101.145 360.023 95.9741 360.023V361.023ZM109.279 354.797C110.444 353.373 111.4 351.697 112.15 349.775L111.219 349.411C110.501 351.248 109.595 352.831 108.505 354.164L109.279 354.797ZM112.185 349.593V347.015H111.185V349.593H112.185ZM111.685 347.015C112.184 346.987 112.184 346.987 112.184 346.987C112.184 346.987 112.184 346.987 112.184 346.987C112.184 346.987 112.184 346.987 112.184 346.987C112.184 346.987 112.184 346.987 112.184 346.987C112.184 346.987 112.184 346.987 112.184 346.987C112.184 346.987 112.184 346.987 112.184 346.986C112.184 346.986 112.184 346.986 112.184 346.986C112.184 346.986 112.184 346.986 112.184 346.986C112.184 346.985 112.184 346.985 112.184 346.985C112.184 346.983 112.184 346.983 112.184 346.982C112.183 346.977 112.184 346.982 112.183 346.977C112.183 346.964 112.183 346.981 112.183 346.966C112.182 346.949 112.183 346.967 112.182 346.949C112.182 346.948 112.179 346.909 112.179 346.902C112.178 346.876 112.18 346.913 112.178 346.887C112.178 346.887 112.178 346.886 112.178 346.885C112.178 346.885 112.178 346.884 112.178 346.883C112.178 346.875 112.178 346.888 112.178 346.879C112.178 346.875 112.178 346.879 112.178 346.875C112.178 346.875 112.178 346.874 112.177 346.873C112.177 346.873 112.177 346.872 112.177 346.871C112.177 346.861 112.177 346.865 112.176 346.854C112.175 346.835 112.177 346.856 112.175 346.836C112.173 346.788 112.169 346.72 112.165 346.647C112.164 346.625 112.165 346.654 112.164 346.633C112.164 346.632 112.164 346.63 112.164 346.629C112.164 346.628 112.164 346.627 112.164 346.625C112.164 346.624 112.164 346.623 112.164 346.622C112.163 346.621 112.163 346.619 112.163 346.618C112.163 346.617 112.162 346.589 112.162 346.588C112.162 346.587 112.158 346.527 112.158 346.524C112.157 346.513 112.158 346.519 112.157 346.508C112.156 346.495 112.157 346.503 112.156 346.491C112.156 346.482 112.155 346.465 112.154 346.456C112.153 346.439 112.154 346.455 112.153 346.438C112.153 346.438 112.152 346.42 112.152 346.42C112.152 346.413 112.152 346.408 112.151 346.401C112.15 346.382 112.151 346.403 112.15 346.383C112.147 346.33 112.145 346.282 112.141 346.222C112.14 346.192 112.142 346.231 112.14 346.201C112.139 346.189 112.14 346.202 112.14 346.19C112.139 346.187 112.139 346.182 112.139 346.179C112.139 346.179 112.138 346.168 112.138 346.168C112.138 346.157 112.138 346.168 112.138 346.157C112.136 346.124 112.138 346.168 112.136 346.135C112.136 346.124 112.136 346.134 112.136 346.124C112.136 346.118 112.136 346.118 112.135 346.112C112.135 346.112 112.135 346.101 112.135 346.101C112.134 346.092 112.134 346.099 112.134 346.089C112.132 346.052 112.135 346.104 112.133 346.066C112.132 346.058 112.132 346.063 112.132 346.055C112.132 346.047 112.132 346.05 112.131 346.043C112.131 346.043 112.129 345.996 112.129 345.995C112.128 345.988 112.128 345.99 112.128 345.983C112.127 345.973 112.128 345.981 112.127 345.971C112.126 345.949 112.127 345.968 112.126 345.946C112.124 345.902 112.127 345.966 112.125 345.921C112.123 345.899 112.125 345.93 112.124 345.908C112.123 345.896 112.124 345.909 112.123 345.896C112.122 345.874 112.123 345.892 112.122 345.87C112.121 345.856 112.122 345.871 112.121 345.857C112.121 345.855 112.121 345.853 112.121 345.851C112.121 345.849 112.12 345.847 112.12 345.845C112.117 345.783 112.112 345.695 112.108 345.627C112.107 345.606 112.109 345.634 112.107 345.613C112.107 345.611 112.107 345.608 112.107 345.606C112.107 345.604 112.107 345.601 112.107 345.599C112.106 345.581 112.107 345.602 112.106 345.585C112.105 345.563 112.106 345.592 112.105 345.57C112.104 345.553 112.104 345.558 112.103 345.541C112.102 345.518 112.104 345.549 112.103 345.526C112.103 345.524 112.102 345.522 112.102 345.519C112.102 345.517 112.102 345.514 112.102 345.512C112.101 345.496 112.102 345.513 112.101 345.497C112.1 345.472 112.102 345.507 112.1 345.482C112.099 345.465 112.099 345.469 112.099 345.452C112.097 345.426 112.099 345.463 112.098 345.437C112.098 345.434 112.097 345.432 112.097 345.429C112.097 345.427 112.097 345.424 112.097 345.422C112.096 345.407 112.097 345.422 112.096 345.407C112.095 345.38 112.097 345.418 112.095 345.391C112.094 345.378 112.094 345.374 112.093 345.36C112.093 345.354 112.093 345.352 112.093 345.345C112.092 345.342 112.092 345.34 112.092 345.337C112.092 345.335 112.092 345.332 112.092 345.329C112.091 345.316 112.092 345.327 112.091 345.314C112.09 345.305 112.09 345.307 112.09 345.298C112.089 345.285 112.089 345.279 112.088 345.266C112.088 345.257 112.088 345.259 112.087 345.25C112.087 345.248 112.087 345.245 112.087 345.242C112.087 345.24 112.087 345.237 112.086 345.234C112.086 345.221 112.086 345.231 112.086 345.218C112.085 345.209 112.085 345.212 112.085 345.202C112.084 345.19 112.083 345.181 112.083 345.169C112.082 345.159 112.082 345.163 112.082 345.153C112.082 345.15 112.082 345.147 112.081 345.145C112.081 345.142 112.081 345.139 112.081 345.136C112.078 345.087 112.069 344.918 112.066 344.863C112.065 344.847 112.066 344.861 112.065 344.845C112.065 344.842 112.064 344.839 112.064 344.836C112.064 344.833 112.064 344.83 112.064 344.827C112.063 344.82 112.063 344.816 112.063 344.809C112.062 344.792 112.063 344.809 112.062 344.791C112.061 344.785 112.06 344.762 112.06 344.755C112.059 344.737 112.06 344.755 112.059 344.737C112.059 344.734 112.058 344.731 112.058 344.728C112.058 344.725 112.058 344.722 112.058 344.719C112.057 344.712 112.057 344.707 112.057 344.7C112.056 344.681 112.057 344.701 112.056 344.682C112.055 344.675 112.054 344.652 112.054 344.645C112.053 344.626 112.054 344.646 112.053 344.626C112.052 344.623 112.052 344.62 112.052 344.617C112.052 344.614 112.052 344.611 112.052 344.608C112.051 344.601 112.051 344.595 112.051 344.589C112.049 344.569 112.051 344.59 112.05 344.57L111.051 344.625C111.054 344.677 111.057 344.724 111.059 344.774C111.062 344.823 111.065 344.871 111.067 344.918C111.069 344.955 111.069 344.952 111.071 344.988C111.073 345.012 111.074 345.035 111.075 345.057C111.078 345.103 111.08 345.148 111.083 345.192C111.087 345.28 111.092 345.365 111.097 345.447C111.1 345.501 111.107 345.635 111.11 345.683C111.111 345.7 111.112 345.722 111.113 345.739C111.113 345.741 111.113 345.744 111.113 345.746C111.113 345.748 111.114 345.75 111.114 345.753C111.114 345.755 111.114 345.757 111.114 345.76C111.114 345.762 111.114 345.764 111.114 345.766C111.115 345.769 111.115 345.771 111.115 345.773C111.115 345.776 111.115 345.778 111.115 345.78C111.115 345.782 111.115 345.785 111.116 345.787C111.116 345.789 111.116 345.791 111.116 345.794C111.118 345.83 111.12 345.865 111.122 345.9C111.126 345.967 111.129 346.037 111.133 346.098C111.136 346.154 111.14 346.228 111.143 346.278C111.146 346.331 111.145 346.308 111.147 346.36C111.149 346.386 111.15 346.414 111.152 346.438C111.154 346.486 111.157 346.538 111.16 346.58C111.163 346.636 111.164 346.652 111.166 346.702C111.167 346.718 111.169 346.742 111.169 346.757C111.17 346.761 111.17 346.766 111.17 346.77C111.17 346.771 111.17 346.774 111.171 346.776C111.171 346.781 111.171 346.777 111.171 346.782C111.171 346.784 111.171 346.786 111.171 346.788C111.171 346.789 111.171 346.79 111.171 346.791C111.171 346.792 111.172 346.793 111.172 346.794C111.172 346.798 111.172 346.803 111.172 346.806C111.174 346.834 111.176 346.87 111.177 346.891C111.179 346.929 111.183 346.992 111.183 347.005C111.184 347.013 111.185 347.031 111.185 347.033C111.185 347.033 111.185 347.035 111.185 347.035C111.185 347.035 111.185 347.036 111.185 347.036C111.185 347.036 111.185 347.036 111.185 347.037C111.185 347.037 111.185 347.037 111.185 347.037C111.185 347.037 111.185 347.037 111.185 347.038C111.185 347.038 111.185 347.038 111.185 347.038C111.185 347.038 111.185 347.039 111.185 347.039C111.185 347.039 111.185 347.04 111.185 347.04C111.185 347.041 111.185 347.042 111.185 347.042C111.185 347.042 111.185 347.042 111.185 347.042C111.185 347.042 111.185 347.042 111.185 347.042C111.185 347.042 111.185 347.042 111.185 347.042C111.185 347.042 111.185 347.042 111.185 347.042C111.185 347.042 111.185 347.042 111.685 347.015ZM112.05 344.598C112.05 344.176 112.136 343.952 112.224 343.841C112.295 343.752 112.414 343.674 112.678 343.674V342.674C112.19 342.674 111.746 342.834 111.44 343.22C111.152 343.583 111.05 344.071 111.05 344.598H112.05ZM112.678 343.674C112.945 343.674 113.095 343.758 113.201 343.889L113.982 343.265C113.657 342.859 113.199 342.674 112.678 342.674V343.674ZM113.212 343.903C113.338 344.05 113.414 344.243 113.414 344.517H114.414C114.414 344.039 114.274 343.606 113.971 343.252L113.212 343.903ZM113.415 344.481L113.254 346.71L114.251 346.782L114.412 344.553L113.415 344.481ZM113.252 346.746V356.736H114.252V346.746H113.252ZM113.253 356.756L113.414 360.918L114.413 360.88L114.252 356.717L113.253 356.756ZM113.414 360.899C113.414 361.226 113.322 361.428 113.184 361.566L113.891 362.273C114.255 361.909 114.414 361.431 114.414 360.899H113.414ZM113.171 361.579C113.027 361.735 112.879 361.795 112.705 361.795V362.795C113.176 362.795 113.583 362.605 113.904 362.26L113.171 361.579ZM112.705 361.795C112.394 361.795 112.251 361.715 112.18 361.641C112.105 361.563 112.023 361.4 112.023 361.06H111.023C111.023 361.543 111.139 361.999 111.458 362.332C111.78 362.67 112.228 362.795 112.705 362.795V361.795ZM112.023 361.06C112.023 360.886 112.054 360.578 112.125 360.116L111.137 359.964C111.065 360.432 111.023 360.804 111.023 361.06H112.023Z" fill="black"/>
</g>
<g filter="url(#filter3_d_0_1)">
<path d="M343.631 93.0396L343.685 91.1865V86.9434C341.16 91.1507 337.436 93.8273 332.513 94.9731C330.955 95.3312 329.138 95.5103 327.061 95.5103C325.002 95.5103 322.863 95.0806 320.643 94.2212C318.44 93.3618 316.507 92.1175 314.842 90.4883C311.189 86.9434 309.363 82.2795 309.363 76.4966C309.363 70.9644 311.297 66.2826 315.164 62.4512C319.192 58.4945 324.25 56.5161 330.337 56.5161C333.417 56.5161 336.201 57.089 338.689 58.2349C340.211 58.9152 341.285 59.5508 341.912 60.1416C342.539 60.7145 342.852 61.18 342.852 61.5381C342.852 61.8783 342.745 62.1737 342.53 62.4243C342.315 62.675 342.011 62.8003 341.617 62.8003C341.241 62.8003 340.82 62.5944 340.354 62.1826C338.976 60.9652 337.758 60.1685 336.702 59.7925C335.664 59.4165 334.831 59.1479 334.205 58.9868C333.578 58.8257 333.014 58.7093 332.513 58.6377C331.743 58.5303 330.83 58.4766 329.773 58.4766C328.717 58.4766 327.741 58.5661 326.846 58.7451V93.4961C327.043 93.514 327.24 93.5229 327.437 93.5229H327.974C333.292 93.5229 337.597 91.5088 340.892 87.4805C342.02 86.1019 342.951 84.4727 343.685 82.5928V80.0146C343.685 80.0146 343.64 79.209 343.55 77.5977C343.55 76.6488 343.926 76.1743 344.678 76.1743C345.072 76.1743 345.376 76.3086 345.591 76.5771C345.806 76.8278 345.914 77.1411 345.914 77.5171L345.752 79.7461V89.7363L345.914 93.8989C345.914 94.3286 345.788 94.6688 345.538 94.9194C345.305 95.1701 345.027 95.2954 344.705 95.2954C343.917 95.2954 343.523 94.8836 343.523 94.0601C343.523 93.8452 343.559 93.505 343.631 93.0396Z" fill="black"/>
<path d="M343.631 93.0396L344.125 93.1156L344.13 93.085L344.131 93.054L343.631 93.0396ZM343.685 91.1865L344.184 91.201L344.185 91.1938V91.1865H343.685ZM343.685 86.9434H344.185V85.1382L343.256 86.6861L343.685 86.9434ZM332.513 94.9731L332.625 95.4604L332.626 95.4601L332.513 94.9731ZM320.643 94.2212L320.461 94.687L320.462 94.6875L320.643 94.2212ZM314.842 90.4883L315.191 90.1309L315.19 90.1295L314.842 90.4883ZM315.164 62.4512L314.814 62.0945L314.812 62.096L315.164 62.4512ZM338.689 58.2349L338.48 58.6891L338.485 58.6913L338.689 58.2349ZM341.912 60.1416L341.569 60.5054L341.575 60.5106L341.912 60.1416ZM340.354 62.1826L340.686 61.8081L340.685 61.8078L340.354 62.1826ZM336.702 59.7925L336.532 60.2626L336.534 60.2635L336.702 59.7925ZM334.205 58.9868L334.329 58.5026L334.205 58.9868ZM332.513 58.6377L332.583 58.1427L332.582 58.1425L332.513 58.6377ZM326.846 58.7451L326.748 58.2548L326.346 58.3352V58.7451H326.846ZM326.846 93.4961H326.346V93.9527L326.801 93.994L326.846 93.4961ZM340.892 87.4805L340.505 87.1638L340.505 87.1639L340.892 87.4805ZM343.685 82.5928L344.15 82.7746L344.185 82.6869V82.5928H343.685ZM343.685 80.0146H344.185V80.0008L344.184 79.9869L343.685 80.0146ZM343.55 77.5977H343.05V77.6115L343.051 77.6254L343.55 77.5977ZM345.591 76.5771L345.201 76.8895L345.206 76.8961L345.212 76.9025L345.591 76.5771ZM345.914 77.5171L346.412 77.5531L346.414 77.5351V77.5171H345.914ZM345.752 79.7461L345.254 79.71L345.252 79.728V79.7461H345.752ZM345.752 89.7363H345.252V89.746L345.253 89.7557L345.752 89.7363ZM345.914 93.8989H346.414V93.8893L346.413 93.8796L345.914 93.8989ZM345.538 94.9194L345.184 94.5659L345.177 94.5724L345.171 94.5792L345.538 94.9194ZM344.131 93.054L344.184 91.201L343.185 91.172L343.131 93.0251L344.131 93.054ZM344.185 91.1865V86.9434H343.185V91.1865H344.185ZM343.256 86.6861C340.803 90.7734 337.195 93.37 332.399 94.4862L332.626 95.4601C337.677 94.2846 341.517 91.528 344.113 87.2006L343.256 86.6861ZM332.401 94.4859C330.889 94.8334 329.111 95.0103 327.061 95.0103V96.0103C329.165 96.0103 331.021 95.829 332.625 95.4604L332.401 94.4859ZM327.061 95.0103C325.073 95.0103 322.994 94.5954 320.823 93.7549L320.462 94.6875C322.731 95.5657 324.932 96.0103 327.061 96.0103V95.0103ZM320.824 93.7554C318.684 92.9201 316.808 91.7124 315.191 90.1309L314.492 90.8457C316.206 92.5227 318.197 93.8035 320.461 94.687L320.824 93.7554ZM315.19 90.1295C311.648 86.6919 309.863 82.1644 309.863 76.4966H308.863C308.863 82.3945 310.731 87.1948 314.494 90.8471L315.19 90.1295ZM309.863 76.4966C309.863 71.0953 311.745 66.5421 315.516 62.8064L314.812 62.096C310.848 66.023 308.863 70.8334 308.863 76.4966H309.863ZM315.514 62.8079C319.442 58.9506 324.37 57.0161 330.337 57.0161V56.0161C324.13 56.0161 318.943 58.0383 314.814 62.0945L315.514 62.8079ZM330.337 57.0161C333.354 57.0161 336.065 57.5769 338.48 58.689L338.899 57.7807C336.337 56.6011 333.48 56.0161 330.337 56.0161V57.0161ZM338.485 58.6913C339.995 59.366 341.006 59.9741 341.569 60.5054L342.255 59.7778C341.565 59.1275 340.428 58.4644 338.894 57.7784L338.485 58.6913ZM341.575 60.5106C341.872 60.7825 342.076 61.0119 342.202 61.1996C342.332 61.393 342.352 61.5002 342.352 61.5381H343.352C343.352 61.2179 343.215 60.9133 343.032 60.6412C342.845 60.3634 342.579 60.0736 342.249 59.7726L341.575 60.5106ZM342.352 61.5381C342.352 61.7629 342.285 61.9419 342.15 62.0989L342.909 62.7497C343.204 62.4055 343.352 61.9936 343.352 61.5381H342.352ZM342.15 62.0989C342.049 62.2172 341.896 62.3003 341.617 62.3003V63.3003C342.126 63.3003 342.581 63.1327 342.909 62.7497L342.15 62.0989ZM341.617 62.3003C341.421 62.3003 341.116 62.1883 340.686 61.8081L340.023 62.5571C340.524 63.0005 341.061 63.3003 341.617 63.3003V62.3003ZM340.685 61.8078C339.286 60.5718 338.012 59.7281 336.87 59.3214L336.534 60.2635C337.504 60.6088 338.666 61.3586 340.024 62.5574L340.685 61.8078ZM336.872 59.3223C335.828 58.9442 334.978 58.6695 334.329 58.5026L334.08 59.4711C334.684 59.6264 335.5 59.8889 336.532 60.2626L336.872 59.3223ZM334.329 58.5026C333.689 58.3381 333.107 58.2175 332.583 58.1427L332.442 59.1327C332.921 59.2011 333.467 59.3133 334.08 59.4711L334.329 58.5026ZM332.582 58.1425C331.783 58.031 330.845 57.9766 329.773 57.9766V58.9766C330.814 58.9766 331.703 59.0296 332.444 59.1329L332.582 58.1425ZM329.773 57.9766C328.689 57.9766 327.68 58.0684 326.748 58.2548L326.944 59.2354C327.803 59.0637 328.745 58.9766 329.773 58.9766V57.9766ZM326.346 58.7451V93.4961H327.346V58.7451H326.346ZM326.801 93.994C327.013 94.0133 327.225 94.0229 327.437 94.0229V93.0229C327.255 93.0229 327.073 93.0147 326.891 92.9981L326.801 93.994ZM327.437 94.0229H327.974V93.0229H327.437V94.0229ZM327.974 94.0229C333.438 94.0229 337.887 91.9443 341.279 87.797L340.505 87.1639C337.308 91.0732 333.145 93.0229 327.974 93.0229V94.0229ZM341.279 87.7971C342.444 86.373 343.4 84.6969 344.15 82.7746L343.219 82.4109C342.501 84.2484 341.595 85.8308 340.505 87.1638L341.279 87.7971ZM344.185 82.5928V80.0146H343.185V82.5928H344.185ZM343.685 80.0146C344.184 79.9869 344.184 79.9869 344.184 79.9869C344.184 79.9869 344.184 79.9869 344.184 79.9869C344.184 79.9869 344.184 79.9868 344.184 79.9868C344.184 79.9868 344.184 79.9868 344.184 79.9868C344.184 79.9867 344.184 79.9867 344.184 79.9866C344.184 79.9865 344.184 79.9865 344.184 79.9865C344.184 79.9864 344.184 79.9864 344.184 79.9863C344.184 79.9859 344.184 79.9861 344.184 79.9856C344.184 79.9854 344.184 79.9848 344.184 79.9846C344.184 79.9833 344.184 79.9832 344.184 79.9816C344.183 79.977 344.184 79.9825 344.183 79.9775C344.183 79.9637 344.183 79.9811 344.183 79.9657C344.182 79.9494 344.183 79.967 344.182 79.9491C344.182 79.9484 344.179 79.9089 344.179 79.9019C344.178 79.8765 344.18 79.913 344.178 79.8872C344.178 79.8865 344.178 79.8859 344.178 79.8853C344.178 79.8846 344.178 79.884 344.178 79.8833C344.178 79.8751 344.178 79.8876 344.178 79.8794C344.178 79.8753 344.178 79.8794 344.178 79.8754C344.178 79.8747 344.178 79.874 344.177 79.8733C344.177 79.8726 344.177 79.8719 344.177 79.8713C344.177 79.8605 344.177 79.8652 344.176 79.8541C344.175 79.8346 344.177 79.8558 344.175 79.8359C344.173 79.7883 344.169 79.7198 344.165 79.647C344.164 79.6254 344.165 79.6544 344.164 79.6327C344.164 79.6315 344.164 79.6303 344.164 79.6291C344.164 79.6279 344.164 79.6267 344.164 79.6254C344.164 79.6242 344.164 79.623 344.164 79.6218C344.163 79.6206 344.163 79.6193 344.163 79.6181C344.163 79.6175 344.162 79.5891 344.162 79.588C344.162 79.5873 344.158 79.5266 344.158 79.5243C344.157 79.513 344.158 79.519 344.157 79.5076C344.156 79.495 344.157 79.5033 344.156 79.4907C344.156 79.4818 344.155 79.4651 344.154 79.4558C344.153 79.4393 344.154 79.4547 344.153 79.438C344.153 79.4377 344.152 79.4202 344.152 79.4198C344.152 79.4134 344.152 79.4079 344.151 79.4014C344.15 79.3816 344.151 79.4026 344.15 79.3827C344.147 79.3295 344.145 79.2816 344.141 79.2222C344.14 79.1919 344.142 79.2311 344.14 79.2008C344.139 79.1886 344.14 79.2022 344.14 79.19C344.139 79.1872 344.139 79.1819 344.139 79.1791C344.139 79.1789 344.138 79.1683 344.138 79.1681C344.138 79.1569 344.138 79.1683 344.138 79.1571C344.136 79.1236 344.138 79.1685 344.136 79.1348C344.136 79.1244 344.136 79.134 344.136 79.1236C344.136 79.1183 344.136 79.1175 344.135 79.1123C344.135 79.1121 344.135 79.101 344.135 79.1009C344.134 79.0915 344.134 79.0987 344.134 79.0894C344.132 79.0519 344.135 79.1038 344.133 79.0662C344.132 79.0578 344.132 79.063 344.132 79.0545C344.132 79.0471 344.132 79.0502 344.131 79.0428C344.131 79.0425 344.129 78.9956 344.129 78.995C344.128 78.9878 344.128 78.99 344.128 78.9828C344.127 78.9729 344.128 78.9806 344.127 78.9706C344.126 78.9489 344.127 78.9679 344.126 78.946C344.124 78.9015 344.127 78.9657 344.125 78.9211C344.123 78.8992 344.125 78.9303 344.124 78.9085C344.123 78.8958 344.124 78.9085 344.123 78.8958C344.122 78.8742 344.123 78.892 344.122 78.8703C344.121 78.8565 344.122 78.8713 344.121 78.8575C344.121 78.8553 344.121 78.8531 344.121 78.851C344.121 78.8488 344.12 78.8467 344.12 78.8445C344.117 78.783 344.112 78.6952 344.108 78.6274C344.107 78.6063 344.109 78.6342 344.107 78.6132C344.107 78.6108 344.107 78.6084 344.107 78.606C344.107 78.6037 344.107 78.6013 344.107 78.5989C344.106 78.5814 344.107 78.6021 344.106 78.5845C344.105 78.5626 344.106 78.5921 344.105 78.5701C344.104 78.553 344.104 78.5583 344.103 78.5411C344.102 78.5182 344.104 78.5492 344.103 78.5264C344.103 78.524 344.102 78.5215 344.102 78.5191C344.102 78.5166 344.102 78.5142 344.102 78.5117C344.101 78.4959 344.102 78.5128 344.101 78.4969C344.1 78.4721 344.102 78.5069 344.1 78.482C344.099 78.4655 344.099 78.4688 344.099 78.4521C344.097 78.4264 344.099 78.4628 344.098 78.437C344.098 78.4345 344.097 78.432 344.097 78.4294C344.097 78.4269 344.097 78.4244 344.097 78.4219C344.096 78.4067 344.097 78.4218 344.096 78.4066C344.095 78.3799 344.097 78.418 344.095 78.3913C344.094 78.3777 344.094 78.3742 344.093 78.3605C344.093 78.3536 344.093 78.3519 344.093 78.345C344.092 78.3424 344.092 78.3398 344.092 78.3372C344.092 78.3346 344.092 78.332 344.092 78.3294C344.091 78.316 344.092 78.327 344.091 78.3137C344.09 78.3049 344.09 78.3067 344.09 78.2979C344.089 78.2851 344.089 78.2792 344.088 78.2662C344.088 78.2574 344.088 78.2591 344.087 78.2503C344.087 78.2476 344.087 78.2449 344.087 78.2422C344.087 78.2396 344.087 78.2369 344.086 78.2342C344.086 78.2211 344.086 78.2312 344.086 78.2181C344.085 78.2085 344.085 78.2115 344.085 78.2019C344.084 78.1899 344.083 78.1814 344.083 78.1693C344.082 78.159 344.082 78.1632 344.082 78.1529C344.082 78.1501 344.082 78.1474 344.081 78.1447C344.081 78.1419 344.081 78.1392 344.081 78.1364C344.078 78.0874 344.069 77.9179 344.066 77.8626C344.065 77.8468 344.066 77.8607 344.065 77.8449C344.065 77.8419 344.064 77.8389 344.064 77.836C344.064 77.833 344.064 77.83 344.064 77.8271C344.063 77.8198 344.063 77.8165 344.063 77.8092C344.062 77.7919 344.063 77.8085 344.062 77.7912C344.061 77.7845 344.06 77.7618 344.06 77.7551C344.059 77.7369 344.06 77.7551 344.059 77.7369C344.059 77.7338 344.058 77.7308 344.058 77.7278C344.058 77.7247 344.058 77.7217 344.058 77.7186C344.057 77.7118 344.057 77.7071 344.057 77.7003C344.056 77.6812 344.057 77.701 344.056 77.6819C344.055 77.6751 344.054 77.6518 344.054 77.6449C344.053 77.6255 344.054 77.6456 344.053 77.6262C344.052 77.6231 344.052 77.62 344.052 77.6169C344.052 77.6138 344.052 77.6107 344.052 77.6075C344.051 77.6013 344.051 77.595 344.051 77.5888C344.049 77.5685 344.051 77.5902 344.05 77.5699L343.051 77.6254C343.054 77.6771 343.057 77.7239 343.059 77.7741C343.062 77.8229 343.065 77.8709 343.067 77.9181C343.069 77.9546 343.069 77.9522 343.071 77.9883C343.073 78.0115 343.074 78.0345 343.075 78.0573C343.078 78.103 343.08 78.1478 343.083 78.1919C343.087 78.28 343.092 78.365 343.097 78.4468C343.1 78.5013 343.107 78.6346 343.11 78.6828C343.111 78.6997 343.112 78.7224 343.113 78.7389C343.113 78.7412 343.113 78.7435 343.113 78.7458C343.113 78.7481 343.114 78.7504 343.114 78.7527C343.114 78.755 343.114 78.7573 343.114 78.7596C343.114 78.7619 343.114 78.7642 343.114 78.7665C343.115 78.7688 343.115 78.771 343.115 78.7733C343.115 78.7756 343.115 78.7779 343.115 78.7802C343.115 78.7824 343.115 78.7847 343.116 78.787C343.116 78.7892 343.116 78.7915 343.116 78.7938C343.118 78.83 343.12 78.8654 343.122 78.9C343.126 78.9674 343.129 79.0371 343.133 79.0982C343.136 79.1542 343.14 79.228 343.143 79.2776C343.146 79.3312 343.145 79.3082 343.147 79.3602C343.149 79.3856 343.15 79.4144 343.152 79.4381C343.154 79.4859 343.157 79.5383 343.16 79.5798C343.163 79.6361 343.164 79.6525 343.166 79.7025C343.167 79.7185 343.169 79.7424 343.169 79.7568C343.17 79.7606 343.17 79.7659 343.17 79.7696C343.17 79.7715 343.17 79.7741 343.171 79.7759C343.171 79.7811 343.171 79.777 343.171 79.7822C343.171 79.7841 343.171 79.7864 343.171 79.7883C343.171 79.7893 343.171 79.7904 343.171 79.7914C343.171 79.7924 343.172 79.7934 343.172 79.7944C343.172 79.7979 343.172 79.8029 343.172 79.8063C343.174 79.8335 343.176 79.8704 343.177 79.8913C343.179 79.9291 343.183 79.992 343.183 80.0046C343.184 80.0132 343.185 80.0306 343.185 80.0329C343.185 80.0335 343.185 80.0347 343.185 80.0352C343.185 80.0355 343.185 80.0359 343.185 80.0362C343.185 80.0363 343.185 80.0365 343.185 80.0366C343.185 80.0368 343.185 80.0369 343.185 80.0371C343.185 80.0372 343.185 80.0374 343.185 80.0375C343.185 80.0376 343.185 80.0378 343.185 80.0379C343.185 80.038 343.185 80.0387 343.185 80.0387C343.185 80.039 343.185 80.0398 343.185 80.04C343.185 80.0406 343.185 80.0416 343.185 80.0418C343.185 80.042 343.185 80.0421 343.185 80.0422C343.185 80.0423 343.185 80.0423 343.185 80.0423C343.185 80.0423 343.185 80.0423 343.185 80.0423C343.185 80.0424 343.185 80.0424 343.185 80.0424C343.185 80.0424 343.185 80.0424 343.685 80.0146ZM344.05 77.5977C344.05 77.1758 344.136 76.9518 344.224 76.8407C344.295 76.7518 344.414 76.6743 344.678 76.6743V75.6743C344.19 75.6743 343.746 75.8341 343.44 76.2196C343.152 76.583 343.05 77.0706 343.05 77.5977H344.05ZM344.678 76.6743C344.945 76.6743 345.095 76.7577 345.201 76.8895L345.982 76.2648C345.657 75.8595 345.199 75.6743 344.678 75.6743V76.6743ZM345.212 76.9025C345.338 77.05 345.414 77.2428 345.414 77.5171H346.414C346.414 77.0394 346.274 76.6056 345.971 76.2518L345.212 76.9025ZM345.415 77.481L345.254 79.71L346.251 79.7821L346.412 77.5531L345.415 77.481ZM345.252 79.7461V89.7363H346.252V79.7461H345.252ZM345.253 89.7557L345.414 93.9183L346.413 93.8796L346.252 89.717L345.253 89.7557ZM345.414 93.8989C345.414 94.226 345.322 94.4283 345.184 94.5659L345.891 95.273C346.255 94.9093 346.414 94.4312 346.414 93.8989H345.414ZM345.171 94.5792C345.027 94.735 344.879 94.7954 344.705 94.7954V95.7954C345.176 95.7954 345.583 95.6052 345.904 95.2597L345.171 94.5792ZM344.705 94.7954C344.394 94.7954 344.251 94.7153 344.18 94.641C344.105 94.5625 344.023 94.4002 344.023 94.0601H343.023C343.023 94.5435 343.139 94.9989 343.458 95.3322C343.78 95.6697 344.228 95.7954 344.705 95.7954V94.7954ZM344.023 94.0601C344.023 93.8862 344.054 93.5783 344.125 93.1156L343.137 92.9635C343.065 93.4318 343.023 93.8042 343.023 94.0601H344.023Z" fill="black"/>
</g>
<defs>
<filter id="filter0_d_0_1" x="1.03906" y="10.1025" width="240.593" height="256.145" filterUnits="userSpaceOnUse" color-interpolation-filters="sRGB">
<feFlood flood-opacity="0" result="BackgroundImageFix"/>
<feColorMatrix in="SourceAlpha" type="matrix" values="0 0 0 0 0 0 0 0 0 0 0 0 0 0 0 0 0 0 127 0" result="hardAlpha"/>
<feOffset dy="4"/>
<feGaussianBlur stdDeviation="2"/>
<feComposite in2="hardAlpha" operator="out"/>
<feColorMatrix type="matrix" values="0 0 0 0 0 0 0 0 0 0 0 0 0 0 0 0 0 0 0.25 0"/>
<feBlend mode="normal" in2="BackgroundImageFix" result="effect1_dropShadow_0_1"/>
<feBlend mode="normal" in="SourceGraphic" in2="effect1_dropShadow_0_1" result="shape"/>
</filter>
<filter id="filter1_d_0_1" x="233.039" y="223.103" width="240.593" height="256.145" filterUnits="userSpaceOnUse" color-interpolation-filters="sRGB">
<feFlood flood-opacity="0" result="BackgroundImageFix"/>
<feColorMatrix in="SourceAlpha" type="matrix" values="0 0 0 0 0 0 0 0 0 0 0 0 0 0 0 0 0 0 127 0" result="hardAlpha"/>
<feOffset dy="4"/>
<feGaussianBlur stdDeviation="2"/>
<feComposite in2="hardAlpha" operator="out"/>
<feColorMatrix type="matrix" values="0 0 0 0 0 0 0 0 0 0 0 0 0 0 0 0 0 0 0.25 0"/>
<feBlend mode="normal" in2="BackgroundImageFix" result="effect1_dropShadow_0_1"/>
<feBlend mode="normal" in="SourceGraphic" in2="effect1_dropShadow_0_1" result="shape"/>
</filter>
<filter id="filter2_d_0_1" x="73.3633" y="323.516" width="44.5503" height="46.9941" filterUnits="userSpaceOnUse" color-interpolation-filters="sRGB">
<feFlood flood-opacity="0" result="BackgroundImageFix"/>
<feColorMatrix in="SourceAlpha" type="matrix" values="0 0 0 0 0 0 0 0 0 0 0 0 0 0 0 0 0 0 127 0" result="hardAlpha"/>
<feOffset dy="4"/>
<feGaussianBlur stdDeviation="2"/>
<feComposite in2="hardAlpha" operator="out"/>
<feColorMatrix type="matrix" values="0 0 0 0 0 0 0 0 0 0 0 0 0 0 0 0 0 0 0.25 0"/>
<feBlend mode="normal" in2="BackgroundImageFix" result="effect1_dropShadow_0_1"/>
<feBlend mode="normal" in="SourceGraphic" in2="effect1_dropShadow_0_1" result="shape"/>
</filter>
<filter id="filter3_d_0_1" x="305.363" y="56.5161" width="44.5503" height="46.9941" filterUnits="userSpaceOnUse" color-interpolation-filters="sRGB">
<feFlood flood-opacity="0" result="BackgroundImageFix"/>
<feColorMatrix in="SourceAlpha" type="matrix" values="0 0 0 0 0 0 0 0 0 0 0 0 0 0 0 0 0 0 127 0" result="hardAlpha"/>
<feOffset dy="4"/>
<feGaussianBlur stdDeviation="2"/>
<feComposite in2="hardAlpha" operator="out"/>
<feColorMatrix type="matrix" values="0 0 0 0 0 0 0 0 0 0 0 0 0 0 0 0 0 0 0.25 0"/>
<feBlend mode="normal" in2="BackgroundImageFix" result="effect1_dropShadow_0_1"/>
<feBlend mode="normal" in="SourceGraphic" in2="effect1_dropShadow_0_1" result="shape"/>
</filter>
</defs>
</svg>
